solid csg.js
facet normal -1 0 0
outer loop
vertex 60.000000000000014 110 3
vertex 60.000000000000014 110 0
vertex 60.000000000000014 20 0
endloop
endfacet
facet normal -1 0 0
outer loop
vertex 60.000000000000014 110 3
vertex 60.000000000000014 20 0
vertex 60.000000000000014 20 3
endloop
endfacet
facet normal 1 0 0
outer loop
vertex 80.00000000000001 110 0
vertex 80.00000000000001 110 3
vertex 80.00000000000001 20 3
endloop
endfacet
facet normal 1 0 0
outer loop
vertex 80.00000000000001 110 0
vertex 80.00000000000001 20 3
vertex 80.00000000000001 20 0
endloop
endfacet
facet normal 0 0 -1
outer loop
vertex 80.00000000000001 110 0
vertex 80.00000000000001 20 0
vertex 60.000000000000014 20 0
endloop
endfacet
facet normal 0 0 -1
outer loop
vertex 80.00000000000001 110 0
vertex 60.000000000000014 20 0
vertex 60.000000000000014 110 0
endloop
endfacet
facet normal 0 0 1
outer loop
vertex 80.00000000000001 20 3
vertex 80.00000000000001 110 3
vertex 60.000000000000014 110 3
endloop
endfacet
facet normal 0 0 1
outer loop
vertex 80.00000000000001 20 3
vertex 60.000000000000014 110 3
vertex 60.000000000000014 20 3
endloop
endfacet
facet normal 0 1 0
outer loop
vertex 60.000000000000014 110 0
vertex 60.000000000000014 110 3
vertex 80.00000000000001 110 3
endloop
endfacet
facet normal 0 1 0
outer loop
vertex 60.000000000000014 110 0
vertex 80.00000000000001 110 3
vertex 80.00000000000001 110 0
endloop
endfacet
facet normal 0 -1 0
outer loop
vertex 60.000000000000014 20 0
vertex 80.00000000000001 20 0
vertex 80.00000000000001 20 3
endloop
endfacet
facet normal 0 -1 0
outer loop
vertex 60.000000000000014 20 0
vertex 80.00000000000001 20 3
vertex 60.000000000000014 20 3
endloop
endfacet
endsolid csg.js
