solid csg.js
facet normal -1 0 0
outer loop
vertex 40.000000000000014 125 3
vertex 40.000000000000014 125 0
vertex 40.000000000000014 5 0
endloop
endfacet
facet normal -1 0 0
outer loop
vertex 40.000000000000014 125 3
vertex 40.000000000000014 5 0
vertex 40.000000000000014 5 3
endloop
endfacet
facet normal 1 0 0
outer loop
vertex 60.000000000000014 125 0
vertex 60.000000000000014 125 3
vertex 60.000000000000014 5 3
endloop
endfacet
facet normal 1 0 0
outer loop
vertex 60.000000000000014 125 0
vertex 60.000000000000014 5 3
vertex 60.000000000000014 5 0
endloop
endfacet
facet normal 0 1 0
outer loop
vertex 40.000000000000014 125 0
vertex 40.000000000000014 125 3
vertex 60.000000000000014 125 3
endloop
endfacet
facet normal 0 1 0
outer loop
vertex 40.000000000000014 125 0
vertex 60.000000000000014 125 3
vertex 60.000000000000014 125 0
endloop
endfacet
facet normal 0 0 -1
outer loop
vertex 60.000000000000014 125 0
vertex 60.000000000000014 5 0
vertex 40.000000000000014 5 0
endloop
endfacet
facet normal 0 0 -1
outer loop
vertex 60.000000000000014 125 0
vertex 40.000000000000014 5 0
vertex 40.000000000000014 125 0
endloop
endfacet
facet normal 0 0 1
outer loop
vertex 60.000000000000014 5 3
vertex 60.000000000000014 125 3
vertex 40.000000000000014 125 3
endloop
endfacet
facet normal 0 0 1
outer loop
vertex 60.000000000000014 5 3
vertex 40.000000000000014 125 3
vertex 40.000000000000014 5 3
endloop
endfacet
facet normal 0 -1 0
outer loop
vertex 40.000000000000014 5 0
vertex 60.000000000000014 5 0
vertex 60.000000000000014 5 3
endloop
endfacet
facet normal 0 -1 0
outer loop
vertex 40.000000000000014 5 0
vertex 60.000000000000014 5 3
vertex 40.000000000000014 5 3
endloop
endfacet
endsolid csg.js
